# xmcd
#
# Track frame offsets:
# 150
# 21095
# 40117
# 60532
# 78290
# 96020
# 113390
# 129422
# 147737
# 162352
# 176867
# 199182
# 216255
# 228807
#
# Disc length: 3304 seconds
#
#
# Revision: 0
# Processed by: cddbd v1.5.2PL0 Copyright (c) Steve Scherf et al.
# Submitted via: FreeRIP 2.944 
#
DISCID=b90ce60e
DTITLE=CAPITAL INICIAL - CAPITAL INICIAL ACUSTICO
DYEAR=1900
DGENRE=Acoustic
TTITLE0=Capital Inicial - O passageiro
TTITLE1=Capital Inicial - O mundo
TTITLE2=Capital Inicial - Todas as noites
TTITLE3=Capital Inicial - Tudo que vai
TTITLE4=Capital Inicial - Independencia
TTITLE5=Capital Inicial - Leve desespero
TTITLE6=Capital Inicial - Eu vou estar
TTITLE7=Capital Inicial - Primeiros erros
TTITLE8=Capital Inicial - Cai a noite
TTITLE9=Capital Inicial - Natasha
TTITLE10=Capital Inicial - Fogo
TTITLE11=Capital Inicial - Fátima
TTITLE12=Capital Inicial - Veraneio Vascaína
TTITLE13=Capital Inicial - Música urbana
EXTD=
EXTT0=
EXTT1=
EXTT2=
EXTT3=
EXTT4=
EXTT5=
EXTT6=
EXTT7=
EXTT8=
EXTT9=
EXTT10=
EXTT11=
EXTT12=
EXTT13=
PLAYORDER=
